<mxfile host="app.diagrams.net" agent="Mozilla/5.0 (Windows NT 10.0; Win64; x64) AppleWebKit/537.36 (KHTML, like Gecko) Chrome/137.0.0.0 Safari/537.36" version="27.2.0">
  <diagram name="Page-1" id="7WJSC67t7rKUuRcpe-ZX">
    <mxGraphModel dx="3113" dy="1743" grid="1" gridSize="10" guides="1" tooltips="1" connect="1" arrows="1" fold="1" page="1" pageScale="1" pageWidth="850" pageHeight="1100" math="0" shadow="0">
      <root>
        <mxCell id="0" />
        <mxCell id="1" parent="0" />
        <mxCell id="0uII_mOocEv5CvMDCQkW-1" value="Klijentska razina" style="verticalAlign=top;align=left;spacingTop=8;spacingLeft=2;spacingRight=12;shape=cube;size=10;direction=south;fontStyle=4;html=1;rounded=0;shadow=0;comic=0;labelBackgroundColor=none;strokeWidth=1;fontFamily=Verdana;fontSize=12" vertex="1" parent="1">
          <mxGeometry x="130" y="50" width="230" height="150" as="geometry" />
        </mxCell>
        <mxCell id="0uII_mOocEv5CvMDCQkW-2" value="Web razina" style="verticalAlign=top;align=left;spacingTop=8;spacingLeft=2;spacingRight=12;shape=cube;size=10;direction=south;fontStyle=4;html=1;rounded=0;shadow=0;comic=0;labelBackgroundColor=none;strokeWidth=1;fontFamily=Verdana;fontSize=12" vertex="1" parent="1">
          <mxGeometry x="420" y="50" width="240" height="150" as="geometry" />
        </mxCell>
        <mxCell id="0uII_mOocEv5CvMDCQkW-3" value="Aplikacijska razina" style="verticalAlign=top;align=left;spacingTop=8;spacingLeft=2;spacingRight=12;shape=cube;size=10;direction=south;fontStyle=4;html=1;rounded=0;shadow=0;comic=0;labelBackgroundColor=none;strokeWidth=1;fontFamily=Verdana;fontSize=12" vertex="1" parent="1">
          <mxGeometry x="455" y="240" width="250" height="270" as="geometry" />
        </mxCell>
        <mxCell id="0uII_mOocEv5CvMDCQkW-4" value="Korisničko&amp;nbsp;&lt;div&gt;računalo&lt;/div&gt;" style="shape=component;align=left;spacingLeft=36;rounded=0;shadow=0;comic=0;labelBackgroundColor=none;strokeWidth=1;fontFamily=Verdana;fontSize=12;html=1;" vertex="1" parent="1">
          <mxGeometry x="170" y="95" width="120" height="60" as="geometry" />
        </mxCell>
        <mxCell id="0uII_mOocEv5CvMDCQkW-5" value="Web&amp;nbsp;&lt;div&gt;aplikacija&lt;/div&gt;" style="shape=component;align=left;spacingLeft=36;rounded=0;shadow=0;comic=0;labelBackgroundColor=none;strokeWidth=1;fontFamily=Verdana;fontSize=12;html=1;" vertex="1" parent="1">
          <mxGeometry x="470" y="95" width="120" height="60" as="geometry" />
        </mxCell>
        <mxCell id="0uII_mOocEv5CvMDCQkW-6" value="Poslovna&lt;div&gt;logika&lt;/div&gt;" style="shape=component;align=left;spacingLeft=36;rounded=0;shadow=0;comic=0;labelBackgroundColor=none;strokeWidth=1;fontFamily=Verdana;fontSize=12;html=1;" vertex="1" parent="1">
          <mxGeometry x="515" y="300" width="120" height="60" as="geometry" />
        </mxCell>
        <mxCell id="0uII_mOocEv5CvMDCQkW-7" value="Pristup&amp;nbsp;&lt;div&gt;podacima&lt;/div&gt;" style="shape=component;align=left;spacingLeft=36;rounded=0;shadow=0;comic=0;labelBackgroundColor=none;strokeWidth=1;fontFamily=Verdana;fontSize=12;html=1;" vertex="1" parent="1">
          <mxGeometry x="515" y="400" width="120" height="60" as="geometry" />
        </mxCell>
        <mxCell id="0uII_mOocEv5CvMDCQkW-8" value="Podatkovna razina" style="verticalAlign=top;align=left;spacingTop=8;spacingLeft=2;spacingRight=12;shape=cube;size=10;direction=south;fontStyle=4;html=1;rounded=0;shadow=0;comic=0;labelBackgroundColor=none;strokeWidth=1;fontFamily=Verdana;fontSize=12" vertex="1" parent="1">
          <mxGeometry x="130" y="300" width="240" height="150" as="geometry" />
        </mxCell>
        <mxCell id="0uII_mOocEv5CvMDCQkW-9" value="Baza&amp;nbsp;&lt;div&gt;podataka&lt;/div&gt;" style="shape=component;align=left;spacingLeft=36;rounded=0;shadow=0;comic=0;labelBackgroundColor=none;strokeWidth=1;fontFamily=Verdana;fontSize=12;html=1;" vertex="1" parent="1">
          <mxGeometry x="180" y="360" width="120" height="60" as="geometry" />
        </mxCell>
        <mxCell id="0uII_mOocEv5CvMDCQkW-10" value="" style="endArrow=none;html=1;rounded=0;exitX=0;exitY=0;exitDx=70;exitDy=0;exitPerimeter=0;entryX=0.472;entryY=1.015;entryDx=0;entryDy=0;entryPerimeter=0;" edge="1" parent="1" source="0uII_mOocEv5CvMDCQkW-1" target="0uII_mOocEv5CvMDCQkW-2">
          <mxGeometry width="50" height="50" relative="1" as="geometry">
            <mxPoint x="490" y="300" as="sourcePoint" />
            <mxPoint x="540" y="250" as="targetPoint" />
          </mxGeometry>
        </mxCell>
        <mxCell id="0uII_mOocEv5CvMDCQkW-11" value="" style="endArrow=none;html=1;rounded=0;exitX=0;exitY=0;exitDx=150;exitDy=125;exitPerimeter=0;entryX=0;entryY=0;entryDx=0;entryDy=120;entryPerimeter=0;" edge="1" parent="1" source="0uII_mOocEv5CvMDCQkW-2" target="0uII_mOocEv5CvMDCQkW-3">
          <mxGeometry width="50" height="50" relative="1" as="geometry">
            <mxPoint x="490" y="300" as="sourcePoint" />
            <mxPoint x="540" y="250" as="targetPoint" />
          </mxGeometry>
        </mxCell>
        <mxCell id="0uII_mOocEv5CvMDCQkW-12" value="" style="endArrow=none;html=1;rounded=0;entryX=0;entryY=0;entryDx=140;entryDy=250;entryPerimeter=0;exitX=0;exitY=0;exitDx=70;exitDy=0;exitPerimeter=0;" edge="1" parent="1" source="0uII_mOocEv5CvMDCQkW-8" target="0uII_mOocEv5CvMDCQkW-3">
          <mxGeometry width="50" height="50" relative="1" as="geometry">
            <mxPoint x="490" y="300" as="sourcePoint" />
            <mxPoint x="540" y="250" as="targetPoint" />
          </mxGeometry>
        </mxCell>
      </root>
    </mxGraphModel>
  </diagram>
</mxfile>
